<?xml version="1.0" encoding="utf-8"?>
<!-- Generator: Adobe Illustrator 21.0.2, SVG Export Plug-In . SVG Version: 6.00 Build 0)  -->
<svg version="1.1" id="Layer_1" xmlns="http://www.w3.org/2000/svg" xmlns:xlink="http://www.w3.org/1999/xlink" x="0px" y="0px"
	 viewBox="0 0 44 44" style="enable-background:new 0 0 44 44;" xml:space="preserve">
<style type="text/css">
	.st0{filter:url(#Adobe_OpacityMaskFilter);}
	.st1{fill:#FFFFFF;}
	.st2{mask:url(#mask-2);fill:#FF8A65;}
</style>
<title>Facebook</title>
<desc>Created with Sketch.</desc>
<g id="Critique">
	<g id="Story-Page-Copy-5" transform="translate(-1217.000000, -1519.000000)">
		<g id="Facebook" transform="translate(1217.000000, 1519.000000)">
			<g id="Clip-2">
			</g>
			<defs>
				<filter id="Adobe_OpacityMaskFilter" filterUnits="userSpaceOnUse" x="0" y="0" width="43.7" height="43.8">
					<feColorMatrix  type="matrix" values="1 0 0 0 0  0 1 0 0 0  0 0 1 0 0  0 0 0 1 0"/>
				</filter>
			</defs>
			<mask maskUnits="userSpaceOnUse" x="0" y="0" width="43.7" height="43.8" id="mask-2">
				<g class="st0">
					<polygon id="path-1" class="st1" points="0,43.8 43.7,43.8 43.7,0 0,0 					"/>
				</g>
			</mask>
			<path id="Fill-1" class="st2" d="M41.3,0H2.4C1.1,0,0,1.1,0,2.4v39c0,1.3,1.1,2.4,2.4,2.4h20.9v-17h-5.7v-6.6h5.7v-4.9
				c0-5.7,3.4-8.7,8.5-8.7c2.4,0,4.5,0.2,5.1,0.3v5.9l-3.5,0c-2.7,0-3.3,1.3-3.3,3.2v4.2h6.5l-0.9,6.6h-5.7v17h11.1
				c1.3,0,2.4-1.1,2.4-2.4v-39C43.7,1.1,42.6,0,41.3,0"/>
		</g>
	</g>
</g>
</svg>
