<?xml version="1.0" encoding="UTF-8"?>
<svg width="168px" height="39px" viewBox="0 0 168 39" version="1.1" xmlns="http://www.w3.org/2000/svg" xmlns:xlink="http://www.w3.org/1999/xlink">
    <!-- Generator: Sketch 41.2 (35397) - http://www.bohemiancoding.com/sketch -->
    <title>logo full</title>
    <desc>Created with Sketch.</desc>
    <defs>
        <polygon id="path-1" points="46.9664286 38.8925804 46.9664286 8.07830729e-05 8.39285713e-05 8.07830729e-05 8.39285713e-05 38.8925804 46.9664286 38.8925804"></polygon>
    </defs>
    <g id="Matches" stroke="none" stroke-width="1" fill="none" fill-rule="evenodd">
        <g id="Matches-Copy-16" transform="translate(-255.000000, -15.000000)">
            <g id="logo-full" transform="translate(255.000000, 15.000000)">
                <text id="second-read-copy" font-family="Aleo-Bold, Aleo" font-size="20" font-weight="bold" letter-spacing="-0.00694444496" fill="#414141">
                    <tspan x="59" y="25">second read</tspan>
                </text>
                <g id="Page-1" stroke-width="1" fill-rule="evenodd">
                    <mask id="mask-2" fill="white">
                        <use xlink:href="#path-1"></use>
                    </mask>
                    <g id="Clip-2"></g>
                    <path d="M21.0762268,35.5368848 C20.6859589,35.5368848 20.2977893,35.4911022 19.9230482,35.4003848 L6.13106607,31.6301022 C6.86040536,30.1213957 7.09414643,27.6923739 7.09414643,26.0132543 C7.09414643,24.7194717 6.95566429,22.9793087 6.5582625,21.5583522 L8.42273571,22.0649283 L22.4237,25.7542435 L22.7459857,25.8703957 C24.6956464,26.5796022 26.0057714,28.4630478 26.0057714,30.5571783 C26.0057714,33.303287 23.7942536,35.5368848 21.0762268,35.5368848 M8.25152143,8.41831957 C8.57086964,8.41831957 8.88979821,8.44926522 9.20075357,8.5103087 L11.3891911,9.10463478 C15.1395393,10.1135478 18.8542179,11.0906674 22.7917268,12.1190804 C22.1110661,14.1606457 22.0800125,17.04495 22.0800125,17.5311783 C22.0800125,17.9707761 22.1056107,20.3709717 22.6133786,22.3362326 L9.27377143,18.8211457 L7.35474464,18.2997326 L7.25612857,18.2759935 C4.97662857,17.8050261 3.32197679,15.753287 3.32197679,13.3980261 C3.32197679,10.6519174 5.533075,8.41831957 8.25152143,8.41831957 M26.5957893,13.111037 L27.4417893,13.1063739 L39.2799143,9.89014565 C39.0600214,11.4119935 39.0457536,12.8410043 39.0457536,13.1703848 C39.0457536,13.6345696 39.0738696,16.2848739 39.6689232,18.3010043 L24.3242625,22.2946891 C24.0212804,21.3196891 23.7413786,19.7126348 23.7413786,17.5311783 C23.7413786,15.167863 24.0695393,13.4798413 24.4002179,12.5387543 C25.1236821,12.7273957 25.8542804,12.9177326 26.5957893,13.111037 M41.82295,18.0818413 C41.6542536,18.0127435 41.4771643,17.9728957 41.2979768,17.9618739 C40.9916375,16.9898413 40.7067,15.3717652 40.7067,13.1703848 C40.7067,11.6222543 40.8477,10.3619609 41.0377982,9.41239565 L45.8108161,8.11564565 L45.7923518,4.87016739 C40.5023339,3.49796087 34.9647268,2.04902609 28.3692,0.311406522 L28.1824589,0.261808696 C26.8832446,-0.07605 25.4938071,-0.104028261 24.1631196,0.27918913 L5.80458393,5.42422174 L5.80752143,5.43566739 C2.44702143,6.48993913 8.39285713e-05,9.6608087 8.39285713e-05,13.3980261 C8.39285713e-05,16.5604174 1.78440536,19.3951239 4.46130714,20.8003957 C4.82178036,21.290863 5.4332,23.0543413 5.4332,26.0132543 C5.4332,27.4007217 5.29765536,28.5219717 5.11762857,29.3765804 L2.60900357,30.14895 L1.2267,30.5270804 L1.2267,33.7662 L18.5138875,38.4924065 L19.1190125,38.6564609 C19.75645,38.8133087 20.4148696,38.8925804 21.0762268,38.8925804 C21.8408161,38.8925804 22.5793875,38.7832109 23.2827089,38.5856674 L23.2848071,38.5949935 L40.1489946,34.0375043 L41.1540393,33.7683196 C41.1808964,33.761113 41.2081732,33.7530587 41.2350304,33.7441565 C44.6630929,32.6347761 46.9665125,29.4444065 46.9665125,25.805113 C46.9665125,22.3977 44.9471911,19.3658739 41.82295,18.0818413" id="Fill-1" fill="#FF8A65" mask="url(#mask-2)"></path>
                </g>
            </g>
        </g>
    </g>
</svg>