<?xml version="1.0" encoding="UTF-8"?>
<svg width="22px" height="25px" viewBox="0 0 22 25" version="1.1" xmlns="http://www.w3.org/2000/svg" xmlns:xlink="http://www.w3.org/1999/xlink">
    <!-- Generator: Sketch 41.2 (35397) - http://www.bohemiancoding.com/sketch -->
    <title>Notifications</title>
    <desc>Created with Sketch.</desc>
    <defs>
        <polygon id="path-1" points="21.7982417 0.0382352941 0 0.0382352941 0 20.5911471 21.7982417 20.5911471 21.7982417 0.0382352941"></polygon>
    </defs>
    <g id="Matches" stroke="none" stroke-width="1" fill="none" fill-rule="evenodd">
        <g id="Matches-Copy-16" transform="translate(-1536.000000, -23.000000)">
            <g id="Notifications" transform="translate(1535.000000, 22.000000)">
                <g id="Page-1" transform="translate(1.000000, 1.000000)">
                    <g id="Group-3" transform="translate(0.000000, 0.255912)">
                        <mask id="mask-2" fill="white">
                            <use xlink:href="#path-1"></use>
                        </mask>
                        <g id="Clip-2"></g>
                        <path d="M19.9646028,17.0617353 C19.0344917,17.0617353 18.8477972,13.9811471 18.8227417,12.0229118 C18.846575,11.7814412 18.8600194,11.5367353 18.8600194,11.2887941 C18.8600194,11.0687941 18.8481028,10.8511471 18.8291583,10.6358529 C18.8319083,10.5129118 18.8343528,10.4417353 18.8343528,10.4417353 L18.8117417,10.4508529 C18.4976306,7.67379412 16.6416861,5.34320588 14.0851028,4.26732353 L14.0716583,2.89408824 C13.9662417,1.30026471 12.5939917,0.0382058824 10.9116028,0.0382058824 C9.22951944,0.0382058824 7.85696389,1.30026471 7.75185278,2.89408824 L7.75338056,4.25144118 C5.17693611,5.32055882 3.30510278,7.66114706 2.990075,10.4523235 L2.96379722,10.4417353 C2.96379722,10.4417353 2.96685278,10.5264412 2.96990833,10.6699706 C2.95310278,10.8743824 2.94179722,11.0802647 2.94179722,11.2887941 C2.94179722,11.5240882 2.95463056,11.7564412 2.97601944,11.9861471 C2.95310278,13.9423235 2.76946389,17.0617353 1.83354722,17.0617353 C0.820936111,17.0617353 -9.16666668e-05,17.8517353 -9.16666668e-05,18.8264412 C-9.16666668e-05,19.8011471 0.820936111,20.5911471 1.83354722,20.5911471 L9.28574167,20.5911471 L12.5124083,20.5911471 L19.9646028,20.5911471 C20.9772139,20.5911471 21.7982417,19.8011471 21.7982417,18.8264412 C21.7982417,17.8517353 20.9772139,17.0617353 19.9646028,17.0617353" id="Fill-1" fill="#E0E0E0" mask="url(#mask-2)"></path>
                    </g>
                    <path d="M10.9116944,24.9617941 C12.5937778,24.9617941 13.9663333,23.6994412 14.0714444,22.1059118 L7.75194444,22.1059118 C7.85705556,23.6994412 9.22961111,24.9617941 10.9116944,24.9617941" id="Fill-4" fill="#E0E0E0"></path>
                </g>
            </g>
        </g>
    </g>
</svg>