<?xml version="1.0" encoding="utf-8"?>
<!-- Generator: Adobe Illustrator 21.0.2, SVG Export Plug-In . SVG Version: 6.00 Build 0)  -->
<svg version="1.1" id="Layer_1" xmlns="http://www.w3.org/2000/svg" xmlns:xlink="http://www.w3.org/1999/xlink" x="0px" y="0px"
	 viewBox="0 0 29 29" style="enable-background:new 0 0 29 29;" xml:space="preserve">
<style type="text/css">
	.st0{fill:#A3A3A3;stroke:#A3A3A3;stroke-miterlimit:10;}
</style>
<title>Shape</title>
<desc>Created with Sketch.</desc>
<g>
	<g id="path-1_1_">
		<path class="st0" d="M12.1,0.5c-0.3,0-0.5,0.3-0.6,0.5l-0.8,3.2c-0.2,0.1-0.4,0.2-0.6,0.2L7.3,2.7C7,2.5,6.7,2.6,6.5,2.8L3.1,6.1
			C2.9,6.3,2.8,6.7,3,6.9l1.8,2.8c-0.1,0.2-0.2,0.4-0.2,0.6L1.2,11C1,11,0.7,11.3,0.8,11.6v4.8c0,0.3,0.2,0.5,0.5,0.6l3.3,0.7
			c0.1,0.2,0.2,0.4,0.2,0.6L3,21c-0.1,0.2-0.1,0.5,0.1,0.7l3.5,3.4c0.2,0.2,0.5,0.2,0.8,0.1l2.9-1.8c0.2,0.1,0.4,0.2,0.6,0.2
			l0.8,3.2c0.1,0.3,0.3,0.5,0.6,0.5h4.9c0.3,0,0.5-0.2,0.6-0.5l0.8-3.2c0.2-0.1,0.4-0.2,0.6-0.2l2.9,1.8c0.2,0.1,0.6,0.1,0.8-0.1
			l3.5-3.4c0.2-0.2,0.2-0.5,0.1-0.7l-1.8-2.8c0.1-0.2,0.2-0.4,0.2-0.6l3.3-0.7c0.3-0.1,0.5-0.3,0.5-0.6v-4.8c0-0.3-0.2-0.5-0.5-0.6
			l-3.3-0.7c-0.1-0.2-0.2-0.4-0.2-0.6L26,6.9c0.1-0.2,0.1-0.6-0.1-0.7l-3.5-3.4c-0.2-0.2-0.5-0.2-0.8-0.1l-2.9,1.8
			c-0.2-0.1-0.4-0.2-0.6-0.2L17.5,1c-0.1-0.3-0.3-0.5-0.6-0.5H12.1z M12.5,1.7h3.9l0.7,3c0,0.2,0.2,0.4,0.4,0.4
			c0.4,0.1,0.7,0.3,1.1,0.4c0.2,0.1,0.4,0.1,0.6,0L22,4l2.8,2.7L23,9.3c-0.1,0.2-0.1,0.4,0,0.6c0.2,0.3,0.3,0.7,0.4,1.1
			c0.1,0.2,0.2,0.3,0.4,0.4L27,12v3.8l-3.1,0.7c-0.2,0-0.4,0.2-0.4,0.4c-0.1,0.4-0.3,0.7-0.4,1.1c-0.1,0.2-0.1,0.4,0,0.6l1.7,2.6
			L22,23.9l-2.7-1.7c-0.2-0.1-0.4-0.1-0.6,0c-0.3,0.2-0.7,0.3-1.1,0.4c-0.2,0.1-0.3,0.2-0.4,0.4l-0.7,3.1h-3.9l-0.7-3.1
			c0-0.2-0.2-0.4-0.4-0.4c-0.4-0.1-0.7-0.3-1.1-0.4c-0.2-0.1-0.4-0.1-0.6,0L7,23.9l-2.8-2.7L6,18.6c0.1-0.2,0.1-0.4,0-0.6
			c-0.2-0.3-0.3-0.7-0.4-1.1c-0.1-0.2-0.2-0.3-0.4-0.4L2,15.9V12l3.1-0.7c0.2,0,0.4-0.2,0.4-0.4c0.1-0.4,0.3-0.7,0.4-1.1
			c0.1-0.2,0.1-0.4,0-0.6L4.3,6.7L7,4l2.7,1.7c0.2,0.1,0.4,0.1,0.6,0c0.3-0.2,0.7-0.3,1.1-0.4c0.2-0.1,0.3-0.2,0.4-0.4L12.5,1.7z
			 M14.5,8.1c-3.3,0-6,2.6-6,5.8s2.7,5.8,6,5.8c3.3,0,6-2.6,6-5.8S17.8,8.1,14.5,8.1z M14.5,9.2c2.7,0,4.9,2.1,4.9,4.8
			s-2.2,4.8-4.9,4.8c-2.7,0-4.9-2.1-4.9-4.8S11.8,9.2,14.5,9.2z"/>
	</g>
</g>
</svg>
