<?xml version="1.0" encoding="utf-8"?>
<!-- Generator: Adobe Illustrator 21.0.2, SVG Export Plug-In . SVG Version: 6.00 Build 0)  -->
<svg version="1.1" id="Layer_1" xmlns="http://www.w3.org/2000/svg" xmlns:xlink="http://www.w3.org/1999/xlink" x="0px" y="0px"
	 viewBox="0 0 44 44" style="enable-background:new 0 0 44 44;" xml:space="preserve">
<style type="text/css">
	.st0{fill:#FF8A65;}
</style>
<title>Twitter</title>
<desc>Created with Sketch.</desc>
<g id="Critique">
	<g id="Story-Page-Copy-5" transform="translate(-1283.000000, -1519.000000)">
		<path id="Twitter" class="st0" d="M1318.4,1534.2c0,0.3,0,0.6,0,0.9c0,9-6.8,19.3-19.3,19.3v0c-3.7,0-7.3-1.1-10.4-3
			c0.5,0.1,1.1,0.1,1.6,0.1c3.1,0,6-1,8.4-2.9c-2.9-0.1-5.5-2-6.4-4.7c1,0.2,2.1,0.2,3.1-0.1c-3.2-0.6-5.5-3.4-5.5-6.7v-0.1
			c0.9,0.5,2,0.8,3.1,0.9c-3-2-3.9-6-2.1-9.1c3.5,4.2,8.5,6.8,14,7.1c-0.5-2.4,0.2-4.8,2-6.5c2.7-2.6,7-2.4,9.6,0.3
			c1.5-0.3,3-0.9,4.3-1.7c-0.5,1.6-1.6,2.9-3,3.8c1.3-0.2,2.7-0.5,3.9-1.1C1320.9,1532.1,1319.7,1533.2,1318.4,1534.2 M1324.6,1519
			h-39.1c-1.3,0-2.4,1.1-2.4,2.4v39.1c0,1.3,1.1,2.4,2.4,2.4h21.1v0h6.9v0h11.2c1.3,0,2.4-1.1,2.4-2.4v-39.1
			C1327,1520.1,1325.9,1519,1324.6,1519"/>
	</g>
</g>
</svg>
